<svg width="20" height="20" viewBox="0 0 20 20" fill="none" xmlns="http://www.w3.org/2000/svg">
<path d="M10.75 9.25H14.0909C14.5051 9.25 14.8409 9.58579 14.8409 10C14.8409 10.4142 14.5051 10.75 14.0909 10.75H10.75V14.0909C10.75 14.5051 10.4142 14.8409 10 14.8409C9.58579 14.8409 9.25 14.5051 9.25 14.0909V10.75H5.90909C5.49488 10.75 5.15909 10.4142 5.15909 10C5.15909 9.58579 5.49488 9.25 5.90909 9.25H9.25V5.90909C9.25 5.49488 9.58579 5.15909 10 5.15909C10.4142 5.15909 10.75 5.49488 10.75 5.90909V9.25ZM10 19.75C4.61522 19.75 0.25 15.3848 0.25 10C0.25 4.61522 4.61522 0.25 10 0.25C15.3848 0.25 19.75 4.61522 19.75 10C19.75 15.3848 15.3848 19.75 10 19.75ZM10 18.25C14.5563 18.25 18.25 14.5563 18.25 10C18.25 5.44365 14.5563 1.75 10 1.75C5.44365 1.75 1.75 5.44365 1.75 10C1.75 14.5563 5.44365 18.25 10 18.25Z" fill="#1A051D"/>
</svg>
